<?xml version="1.0" encoding="utf-8"?>
<!-- Generator: Adobe Illustrator 22.1.0, SVG Export Plug-In . SVG Version: 6.00 Build 0)  -->
<svg version="1.1" id="Layer_1" xmlns="http://www.w3.org/2000/svg" xmlns:xlink="http://www.w3.org/1999/xlink" x="0px" y="0px"
	 viewBox="0 0 606 239" style="enable-background:new 0 0 606 239;" xml:space="preserve">
<style type="text/css">
	.st0{fill:#FFFFFF;}
</style>
<g>
	<path class="st0" d="M137.6,74.5c-3.9,3.6-8.2,7.8-13.1,12.4c-4.9,4.7-9.8,9.4-14.8,14.4c-4.9,4.9-9.7,9.8-14.3,14.7
		c-4.6,4.9-8.6,9.3-11.9,13.2c-0.4,1.9-1,3.6-1.8,5.4c-0.8,1.7-1.8,3.2-3,4.4s-2.5,2.2-3.9,3s-2.9,1.2-4.5,1.2c-0.5,0-1.2-0.1-2-0.2
		c-0.8-0.1-1.3-0.6-1.3-1.4c0-0.6,0.2-1.1,0.6-1.5s0.9-0.9,1.4-1.5s1-1.5,1.4-2.6s0.6-2.8,0.6-5c0-4.1-0.8-7.5-2.4-10
		s-3.7-4.5-6.1-5.9s-5-2.3-7.9-2.7c-2.8-0.4-5.5-0.6-7.9-0.6c-1.3,0-3,0.3-5.2,0.9s-4.5,1.3-7,2s-5.1,1.4-7.7,2s-5.1,0.9-7.3,0.9
		c-1.8,0-3.5-0.1-5-0.4c-1.6-0.3-2.4-1.2-2.4-2.7c0-1,0.3-1.9,1-2.5s2.2-1.1,4.4-1.5s5.4-0.6,9.5-0.8c4.1-0.2,9.6-0.2,16.5-0.2
		c4.6,0,9-1.7,13.2-5.2s8.2-8.1,12.2-14s8-12.7,12-20.4s8.2-15.8,12.5-24.3c-2.7-0.7-5.4-1.7-8.2-2.8c-2.8-1.1-5.3-2.6-7.6-4.5
		c-2.3-1.9-4.2-4.2-5.7-6.9s-2.2-6-2.2-9.7c0-5.3,1.5-9.5,4.5-12.8S81.5,4,87.2,4c1.5,0,2.9,0.1,4.3,0.4C92.9,4.7,94,5.1,95,5.7
		l-0.6,1.4c-1.1-0.4-2.2-0.7-3.3-0.9C90,6,88.7,5.9,87.3,5.9c-2.8,0-5.2,0.4-7.2,1.3s-3.7,2.1-5,3.6s-2.2,3.2-2.8,5.1
		c-0.6,1.9-0.9,3.9-0.9,6c0,2.9,0.6,5.6,1.9,8c1.2,2.4,2.9,4.6,5,6.4c2.1,1.9,4.6,3.4,7.3,4.7c2.8,1.3,5.7,2.3,8.7,2.9
		c2.7-5.6,6.1-10.9,10.3-16c4.2-5.1,8.9-9.6,14.2-13.5c5.2-3.9,10.9-7.1,16.9-9.4s12.2-3.5,18.5-3.5c2.1,0,4.2,0.2,6.3,0.6
		s4.1,1.1,5.8,2.1s3.2,2.3,4.3,4s1.7,3.9,1.7,6.4c0,4.1-1.2,7.8-3.6,11c-2.4,3.2-5.5,6-9.3,8.5c-3.9,2.4-8.2,4.5-13,6.1
		c-4.8,1.7-9.6,3-14.5,4.1c-4.8,1.1-9.4,1.9-13.8,2.3c-4.4,0.5-8.1,0.7-11.1,0.7c-3.4,6.9-6.8,13.6-10.4,20S89,79.7,84.4,85.1
		c-4.5,5.5-9.7,10.3-15.4,14.5s-12.4,7.5-20,10v0.3c3,0,6.4,0.1,10.2,0.2s7.5,0.8,11,1.9s6.4,2.8,8.9,5c2.5,2.3,3.9,5.5,4.2,9.6
		c3.9-4.3,8-8.9,12.5-13.7c4.5-4.8,9.1-9.5,13.8-14.2c4.7-4.7,9.3-9.3,13.9-13.7c4.6-4.4,8.9-8.4,13-12L137.6,74.5z M161.2,11.2
		c0-2.1-0.7-3.9-2-5.4c-1.3-1.6-3.6-2.3-6.9-2.3c-4.4,0-8.9,1.5-13.3,4.4c-4.4,2.9-8.6,6.6-12.5,10.9c-4,4.3-7.5,8.9-10.7,13.7
		c-3.2,4.9-5.8,9.3-7.9,13.2c2.9,0,6.2-0.2,9.9-0.6c3.8-0.4,7.6-1.1,11.6-2.1c4-1,7.8-2.3,11.6-4s7.2-3.8,10.2-6.4
		c3-2.5,5.4-5.6,7.2-9.1C160.3,19.9,161.2,15.8,161.2,11.2z"/>
	<path class="st0" d="M209.7,73.4c-2,2.7-4.3,5.1-7,7.3c-2.7,2.2-5.7,3.3-9,3.3c-2.3,0-4.3-0.5-5.9-1.6c-1.7-1-3.2-2.5-4.6-4.3
		c-1.2,5.2-3.1,10.1-5.9,14.7c-2.7,4.6-6,8.6-9.9,12.1s-8.2,6.2-12.9,8.2s-9.7,3-14.8,3c-5.4,0-9.8-1.6-13-4.9
		c-3.3-3.3-4.9-7.7-4.9-13.4c0-5.5,1.3-10.7,4-15.8c2.7-5,6.1-9.4,10.4-13.2c4.2-3.8,8.9-6.8,14.1-9c5.1-2.2,10.2-3.3,15.1-3.3
		c5.3,0,9.5,1.5,12.6,4.5s4.9,6.6,5.6,10.9c0.5,3.1,1.6,5.6,3.3,7.4c1.7,1.9,4,2.8,6.7,2.8s5.2-0.8,7.6-2.5c2.4-1.7,4.9-4.1,7.6-7.4
		L209.7,73.4z M140.7,114.2c2.5,0,4.9-0.9,7.4-2.6c2.5-1.8,4.8-4,7.1-6.8s4.4-5.9,6.3-9.5c1.9-3.5,3.6-7,5-10.6
		c1.4-3.5,2.5-6.9,3.3-10.1s1.2-5.9,1.2-8.1c0-2.6-0.5-4.6-1.6-6.1c-1-1.4-2.7-2.2-5-2.2c-2.5,0-4.9,0.9-7.4,2.6
		c-2.5,1.8-4.8,4-7.1,6.8c-2.3,2.8-4.4,6-6.3,9.5c-1.9,3.5-3.6,7-5,10.6c-1.4,3.5-2.5,6.9-3.3,10.1s-1.2,5.9-1.2,8.1
		c0,2.6,0.5,4.6,1.6,6.1C136.8,113.5,138.4,114.2,140.7,114.2z"/>
	<path class="st0" d="M260.1,5.1l-45.8,76.4c-3.9,6.5-6.9,11.9-9.2,16.2c-2.3,4.3-3.4,7.8-3.4,10.5c0,2.8,1.1,4.2,3.3,4.2
		c2.1,0,4.9-1.2,8.5-3.6s7.4-5.7,11.4-9.9c3.8-3.9,7.5-8.1,11.1-12.6c3.7-4.4,7.2-9.1,10.7-13.8L248,73c-1.2,1.7-2.5,3.5-4.1,5.6
		c-1.5,2.1-3.1,4.2-4.8,6.3c-1.7,2.1-3.4,4.2-5.1,6.4c-1.7,2.1-3.4,4.1-5.1,5.8c-5.7,6.1-10.8,10.7-15.2,13.7s-9,4.5-13.7,4.5
		c-6.7,0-10.1-3.1-10.1-9.3c0-2.9,1-6.5,3-10.9s5.2-10.3,9.4-17.8L243.6,6L260.1,5.1z"/>
	<path class="st0" d="M289.3,59.9l15.4-0.9c-0.9,1.9-2.2,4.1-3.9,6.8c-1.7,2.6-3.5,5.5-5.5,8.5c-2,3.1-4,6.2-6,9.5s-3.9,6.4-5.6,9.5
		s-3,5.9-4.1,8.5c-1,2.6-1.6,4.9-1.6,6.8c0,2.6,1.2,3.9,3.7,3.9c2.4,0,5.6-1.4,9.6-4.3c4.1-2.9,8.3-6.7,12.8-11.5
		c1.9-2,3.8-4.1,5.7-6.4c1.9-2.3,3.8-4.5,5.6-6.8c1.8-2.2,3.4-4.3,4.9-6.2c1.5-1.9,2.7-3.5,3.6-4.7l1,0.6c-2.6,3.6-5.5,7.6-8.9,12
		s-7.4,9.1-12.2,14c-4.7,5-9.4,9-14,12.2s-9.2,4.7-13.7,4.7c-3.2,0-5.6-0.9-7.3-2.6c-1.7-1.7-2.6-3.8-2.6-6.3c0-0.8,0-1.6,0.1-2.3
		c0.1-0.7,0.2-1.3,0.4-1.7h-0.3c-3.1,3.6-6.5,6.7-10.4,9.2s-8,3.7-12.5,3.7c-2.4,0-4.4-0.5-6.1-1.4c-1.7-0.9-3-2.2-4.1-3.8
		c-1-1.6-1.8-3.4-2.3-5.4s-0.7-4.1-0.7-6.3c0-5.1,1.3-10.1,4-15.2s6-9.6,10.1-13.7s8.6-7.4,13.6-9.9s9.8-3.8,14.3-3.8
		c3.5,0,6.2,0.8,8.2,2.3c2,1.6,3.6,4,4.9,7.3L289.3,59.9z M244.8,99.6c0,3,0.5,5.6,1.4,7.8c0.9,2.2,2.9,3.3,6,3.3
		c2.1-0.1,4.2-1,6.5-2.7c2.3-1.7,4.5-3.9,6.6-6.4c2.1-2.6,4.2-5.5,6.1-8.6c1.9-3.2,3.6-6.3,5-9.5s2.6-6.2,3.4-9.1
		c0.8-2.8,1.3-5.3,1.3-7.2c0-2.8-0.5-5-1.5-6.5c-1-1.6-2.9-2.3-5.8-2.3c-2.3,0-4.6,0.7-6.9,2.2s-4.5,3.4-6.7,5.7
		c-2.1,2.4-4.2,5-6.1,8c-1.9,2.9-3.6,6-5,9.1s-2.5,6.1-3.3,8.9C245.2,95.1,244.8,97.5,244.8,99.6z"/>
</g>
<g>
	<path class="st0" d="M197.8,186.2c4.2-9.3,8.4-18.5,12.6-27.7c4.3-9.2,8.5-18.5,12.8-28l13.9-0.6L221,159.3l0.2,0.3
		c3.1-5,5.8-8.9,8.2-11.9s4.5-5.5,6.3-7.4s3.3-3.3,4.5-4.4c1.2-1,2.1-1.9,2.7-2.6c0.9-1.2,1.7-2.1,2.5-2.8s1.7-1.2,2.7-1.6
		c1.1-0.4,2.3-0.6,3.8-0.7c1.5-0.1,3.4-0.2,5.7-0.3c-1.5,2.8-3,5.8-4.3,8.9c-1.3,3.1-2,6.5-2,10c0,4.5,1.7,6.8,5.3,6.8
		c1.1,0,2.3-0.3,3.4-0.9c1.1-0.6,2.1-1.4,3.1-2.4c1-0.9,1.9-2,2.8-3.1s1.7-2.1,2.4-3.1l0.5,0.8c-2.3,3.7-5,6.7-8.1,9
		s-6.5,3.5-10.1,3.5c-3.3,0-5.8-1.1-7.7-3.3s-2.8-5.5-2.8-9.8c0-2.7,0.6-5.3,1.8-7.8l-0.2-0.3c-3.4,3-6.7,6.4-9.8,10.3
		c-3.1,3.9-6,8-8.6,12.3s-5.1,8.8-7.3,13.4c-2.2,4.6-4.3,9-6,13.4L197.8,186.2z"/>
	<path class="st0" d="M319.5,144.7c-2.5,4.4-5.2,8.8-8.1,13.1s-6.3,8.9-10.3,13.6c-5.6,6.5-11,11.1-16.2,13.5
		c-5.2,2.5-10,3.7-14.6,3.7s-8.3-1.8-11-5.4c-2.7-3.6-4-8.2-4-13.9c0-5.1,1.2-10.1,3.5-15c2.4-5,5.3-9.4,8.9-13.3
		c3.6-3.9,7.5-7.1,11.8-9.5s8.3-3.6,12.2-3.6c3.5,0,6.2,0.9,8.2,2.6s2.9,4.2,2.9,7.4c0,2.5-0.7,4.9-2,7s-3.1,4-5.2,5.7
		s-4.5,3.2-7.1,4.4c-2.6,1.3-5.3,2.4-7.9,3.3c-2.6,0.9-5,1.7-7.3,2.4c-2.3,0.6-4.2,1.2-5.6,1.6c-0.4,2.1-0.6,4-0.6,5.7
		c0,4.5,1,8.2,2.9,11.1c2,2.8,4.7,4.3,8.2,4.3c3.4,0,7.2-1.3,11.3-4c4.1-2.6,8.2-6.5,12.4-11.6c3.2-3.9,6.2-8,9.2-12.3
		c2.9-4.3,5.5-8.3,7.7-11.9L319.5,144.7z M292.9,134c0-1.5-0.3-2.5-0.9-3.2c-0.6-0.6-1.4-0.9-2.4-0.9c-2,0-4.2,1.1-6.6,3.3
		s-4.6,4.9-6.7,8.2c-2.1,3.2-3.9,6.6-5.5,10.1s-2.6,6.6-3.1,9.3c3.3-0.8,6.5-2.2,9.5-4.2s5.7-4.2,8-6.6c2.3-2.5,4.2-5.1,5.6-7.9
		C292.3,139.2,292.9,136.5,292.9,134z"/>
	<path class="st0" d="M369.2,145.4c-3,4.7-6.3,9.7-9.8,14.8s-7.3,9.8-11.3,14s-8.3,7.7-12.9,10.4s-9.5,4.1-14.6,4.1
		c-4.9,0-8.6-1.7-11.2-5.1c-2.6-3.4-3.9-8.5-3.9-15.1c0-5.1,1.1-10,3.4-14.9s5.2-9.2,8.8-13c3.6-3.8,7.5-6.9,11.8-9.2
		s8.5-3.5,12.6-3.5c3.7,0,6.7,1,8.9,2.9c2.2,2,3.3,4.4,3.3,7.2c0,2-0.3,3.8-0.9,5.5c-0.6,1.6-1.4,3-2.4,4.1s-2.1,2-3.3,2.5
		c-1.2,0.6-2.4,0.9-3.7,0.9c-1.1,0-2-0.1-2.8-0.3c0.6-2.4,1.2-4.9,1.8-7.4c0.7-2.5,1-5.1,1-7.6c0-1.8-0.3-3.2-1-4.3
		s-1.5-1.6-2.7-1.6c-2.1,0-4.5,1.1-7.2,3.2c-2.7,2.2-5.2,5.1-7.6,8.7c-2.4,3.6-4.4,7.8-6,12.5s-2.4,9.6-2.4,14.6
		c0,4,0.9,7.4,2.8,10.2s4.5,4.2,7.8,4.2c4,0,8-1.4,11.9-4.3c3.9-2.8,7.7-6.3,11.2-10.4c3.5-4.1,6.8-8.3,9.7-12.7
		c2.9-4.4,5.4-8.2,7.5-11.3L369.2,145.4z"/>
	<path class="st0" d="M384.4,130.5c-3.8,7.8-7.1,14.5-9.9,20s-5,10.3-6.8,14.2s-3.1,7.1-3.9,9.6c-0.9,2.5-1.3,4.5-1.3,6.1
		c0,1.3,0.2,2.3,0.5,3.1c0.4,0.8,0.9,1.2,1.6,1.2c1.6,0,3.9-1.2,6.9-3.6c3-2.4,6.7-6.6,11.2-12.5c1.8-2.4,3.5-4.8,5.3-7.2
		c1.7-2.4,3.3-4.7,4.8-6.9s2.8-4.2,4-6s2.1-3.2,2.9-4.3l1.1,0.9c-1,1.7-2.2,3.6-3.6,5.8s-3,4.4-4.6,6.8c-1.6,2.4-3.3,4.7-5,7
		s-3.4,4.5-5,6.6c-4.7,6.1-8.8,10.4-12.2,12.8c-3.4,2.4-6.5,3.6-9.3,3.6c-2.7,0-4.8-0.9-6.2-2.8c-1.5-1.9-2.2-4.4-2.2-7.4
		c0-2.1,0.3-4.3,0.9-6.6s1.6-5.1,3.1-8.5s3.4-7.6,5.9-12.6c2.4-5,5.5-11.2,9.2-18.6L384.4,130.5z M391.5,95.4c1.5,0,2.9,0.7,4.1,2.2
		s1.8,3.2,1.8,5.2c0,2.1-0.7,4-2,5.8c-1.3,1.7-2.8,2.6-4.4,2.6c-1.8,0-3.3-0.6-4.6-1.8c-1.3-1.2-2-3-2-5.5c0-2.4,0.7-4.5,2.1-6.1
		C388,96.2,389.6,95.4,391.5,95.4z"/>
	<path class="st0" d="M430.1,98.8l-28.2,55.7l0.2,0.3c1.7-2.6,3.5-5.5,5.4-8.7s4-6.1,6.2-8.8s4.6-4.9,7.2-6.7s5.4-2.7,8.4-2.7
		c2.9,0,5.3,1.2,7.1,3.7c1.8,2.5,2.7,5.7,2.7,9.7c0,5.2-0.9,10.1-2.6,14.7c-1.7,4.6-3.8,8.7-6.2,12l0.2,0.3c2.8-0.7,5.5-1.9,8.1-3.6
		c2.6-1.6,5.2-3.6,7.6-5.9c2.4-2.3,4.7-4.7,6.8-7.4c2.1-2.7,4-5.4,5.7-8.2l0.9,1.1c-1.5,2.5-3.4,5.2-5.5,7.9s-4.5,5.4-7,7.8
		c-2.6,2.5-5.4,4.6-8.4,6.5c-3.1,1.8-6.3,3.1-9.7,3.9c-1.6,1.9-3.5,3.9-5.5,6s-4.2,4.1-6.5,5.9c-2.3,1.8-4.6,3.3-7,4.4
		c-2.4,1.2-4.7,1.7-7,1.7c-1.7,0-3.2-0.4-4.5-1.3c-1.3-0.9-1.9-2.4-1.9-4.5c0-2.2,0.8-4,2.5-5.5c1.7-1.4,3.7-2.6,6-3.5
		c2.4-0.9,4.8-1.6,7.4-2.1s4.7-0.9,6.4-1.3c0.7-1.3,1.6-2.9,2.5-4.8c0.9-2,1.8-4.1,2.7-6.6c0.9-2.4,1.6-5,2.1-7.8
		c0.6-2.8,0.9-5.7,0.9-8.6c0-1.2-0.1-2.3-0.2-3.4c-0.1-1.1-0.4-2.1-0.7-3c-0.4-0.9-0.9-1.6-1.5-2.1c-0.7-0.5-1.5-0.8-2.6-0.8
		c-2.4,0-5.3,2.1-8.5,6.2c-3.3,4.1-6.7,9.4-10.4,15.9c-3.7,6.5-7.4,13.7-11.2,21.7c-3.8,8-7.4,15.8-10.9,23.4
		c-3.5,7.6-6.7,14.7-9.6,21.2s-5.3,11.5-7.1,15.1l-12.9,0.6c10.9-22.8,21.8-45.7,32.7-68.8c10.9-23.1,21.7-46.1,32.5-69L430.1,98.8z
		 M401.5,182.4c0,2.3,1.1,3.5,3.4,3.5c1.1,0,2.3-0.5,3.6-1.4c1.3-0.9,2.5-2.1,3.7-3.4c1.2-1.3,2.4-2.7,3.4-4.3
		c1.1-1.5,2-2.9,2.7-4.2c-1.1,0.2-2.5,0.5-4.5,0.9c-1.9,0.4-3.8,1-5.6,1.7c-1.8,0.7-3.4,1.6-4.8,2.8
		C402.2,179.1,401.5,180.6,401.5,182.4z"/>
	<path class="st0" d="M509.2,144.7c-2.5,4.4-5.2,8.8-8.1,13.1s-6.3,8.9-10.3,13.6c-5.6,6.5-11,11.1-16.2,13.5
		c-5.2,2.5-10,3.7-14.6,3.7s-8.3-1.8-11-5.4c-2.7-3.6-4-8.2-4-13.9c0-5.1,1.2-10.1,3.5-15c2.4-5,5.3-9.4,8.9-13.3
		c3.6-3.9,7.5-7.1,11.8-9.5s8.3-3.6,12.2-3.6c3.5,0,6.2,0.9,8.2,2.6s2.9,4.2,2.9,7.4c0,2.5-0.7,4.9-2,7s-3.1,4-5.2,5.7
		s-4.5,3.2-7.1,4.4c-2.6,1.3-5.3,2.4-7.9,3.3c-2.6,0.9-5,1.7-7.3,2.4c-2.3,0.6-4.2,1.2-5.6,1.6c-0.4,2.1-0.6,4-0.6,5.7
		c0,4.5,1,8.2,2.9,11.1c2,2.8,4.7,4.3,8.2,4.3c3.4,0,7.2-1.3,11.3-4c4.1-2.6,8.2-6.5,12.4-11.6c3.2-3.9,6.2-8,9.2-12.3
		c2.9-4.3,5.5-8.3,7.7-11.9L509.2,144.7z M482.7,134c0-1.5-0.3-2.5-0.9-3.2c-0.6-0.6-1.4-0.9-2.4-0.9c-2,0-4.2,1.1-6.6,3.3
		s-4.6,4.9-6.7,8.2c-2.1,3.2-3.9,6.6-5.5,10.1s-2.6,6.6-3.1,9.3c3.3-0.8,6.5-2.2,9.5-4.2s5.7-4.2,8-6.6c2.3-2.5,4.2-5.1,5.6-7.9
		C482,139.2,482.7,136.5,482.7,134z"/>
	<path class="st0" d="M514.7,185.7c4.2-1.2,8-3.1,11.5-5.9c3.5-2.8,6.9-6.1,10-9.8s6-7.8,8.7-12.2s5.4-8.8,8-13.2l1,0.9
		c-3.3,5.5-6.5,10.8-9.8,16.1c-3.3,5.2-6.8,9.8-10.7,13.8s-8.1,7.2-12.7,9.7c-4.6,2.4-9.9,3.6-15.8,3.6c-2.1,0-4.2-0.3-6.3-0.9
		c-2.1-0.6-3.9-1.5-5.6-2.8s-3-3.1-4-5.2c-1-2.2-1.5-4.8-1.5-8c0-1.7,0.2-3.4,0.6-5.1c0.4-1.7,0.9-3.2,1.6-4.6
		c0.7-1.4,1.6-2.5,2.7-3.4s2.4-1.3,3.8-1.3c1.9,0,3.3,0.7,4.3,2.1c1,1.4,1.5,3,1.5,4.7c0,2.2-0.5,3.9-1.5,5.1
		c-1,1.2-2.1,1.7-3.4,1.7c-1.1,0-2-0.3-2.7-0.8c-0.4,0.9-0.8,2-1,3.1c-0.3,1.1-0.4,2.2-0.4,3.4c0,3,0.9,5.4,2.6,7.3
		c1.8,1.9,3.8,2.8,6.2,2.8c1.5,0,3-0.3,4.5-0.9c1.5-0.6,2.8-1.6,4-2.8s2.1-2.7,2.9-4.4c0.7-1.7,1.1-3.5,1.1-5.5
		c0-2.7-0.5-5.2-1.5-7.5s-2.1-4.5-3.4-6.6c-1.2-2.1-2.3-4.2-3.4-6.4c-1-2.2-1.5-4.5-1.5-6.9c0-3,0.5-5.5,1.6-7.8
		c1.1-2.2,2.4-4.1,4.2-5.6c1.7-1.5,3.6-2.7,5.7-3.4s4.3-1.1,6.5-1.1c3.9,0,7.2,1.1,9.8,3.2c2.6,2.2,4,5.2,4,9.3
		c0,3.1-0.8,5.6-2.3,7.5c-1.5,2-3.5,2.9-5.9,2.9c-0.7,0-1.4-0.1-2-0.2c-0.6-0.2-1.1-0.3-1.5-0.6c0.9-2.1,1.5-4.2,1.9-6.2
		c0.4-2.1,0.5-4.1,0.5-6.1c0-2.1-0.5-4-1.4-5.5c-0.9-1.6-2.3-2.4-4.2-2.4c-2.3,0-4,0.9-5.3,2.8c-1.2,1.8-1.8,4.1-1.8,6.9
		c0,3,0.5,5.6,1.5,7.8c1,2.3,2.1,4.5,3.4,6.6c1.2,2.1,2.3,4.3,3.4,6.6c1,2.3,1.5,5.1,1.5,8.2c0,2-0.3,4-0.8,5.9s-1.2,3.6-2.1,5.1
		c-0.9,1.5-1.9,2.7-3,3.7s-2.3,1.7-3.5,2L514.7,185.7L514.7,185.7z"/>
	<path class="st0" d="M554.4,170.4c1.9,0,3.5,0.9,4.8,2.6c1.3,1.7,2,3.8,2,6.3c0,2.4-0.7,4.5-2,6.3c-1.3,1.7-3,2.6-4.8,2.6
		c-1.9,0-3.5-0.9-4.8-2.6c-1.3-1.7-2-3.8-2-6.3c0-2.4,0.7-4.5,2-6.3S552.6,170.4,554.4,170.4z M559.9,167.2
		c1.7-3.6,3.4-7.3,5.1-11.2c1.7-3.9,3.2-7.7,4.6-11.4c1.4-3.7,2.6-7.2,3.8-10.6c1.1-3.4,2-6.3,2.7-8.9c2.3-8.8,4.3-15,6.2-18.8
		c1.8-3.7,3.9-5.6,6.3-5.6c1.5,0,2.7,0.7,3.8,2.1s1.6,3.1,1.6,5.2c0,1.8-0.3,3.6-1,5.5c-0.7,1.8-1.7,3.9-3.1,6.2
		c-1.4,2.3-3.1,5-5.2,8c-2.1,3-4.5,6.6-7.3,10.7c-2.8,4.1-5.6,8.6-8.5,13.5s-5.6,10.1-8.1,15.8L559.9,167.2z"/>
</g>
</svg>
